<?xml version="1.0" standalone="no"?>
<!DOCTYPE svg PUBLIC "-//W3C//DTD SVG 20010904//EN"
 "http://www.w3.org/TR/2001/REC-SVG-20010904/DTD/svg10.dtd">
<svg version="1.0" xmlns="http://www.w3.org/2000/svg"
 width="801.000000pt" height="801.000000pt" viewBox="0 0 801.000000 801.000000"
 preserveAspectRatio="xMidYMid meet">

<g transform="translate(0.000000,801.000000) scale(0.100000,-0.100000)"
fill="#000000" stroke="none">
<path d="M1290 8003 c0 -5 22 -24 47 -43 26 -19 52 -40 58 -46 6 -7 20 -13 31
-15 10 -2 23 -14 29 -27 5 -12 13 -22 17 -22 4 0 26 -27 48 -60 22 -33 45 -60
51 -60 6 0 6 7 -1 19 -14 27 -13 31 7 24 13 -5 15 -2 10 16 -4 18 -2 21 11 16
14 -5 14 -4 -1 13 -20 22 -23 39 -4 23 21 -17 28 -1 10 25 -14 23 -14 24 7 24
12 0 31 -5 43 -11 16 -9 22 -9 25 0 2 6 9 8 15 4 6 -3 22 -8 36 -9 260 -27
440 -94 620 -232 40 -31 85 -66 100 -77 52 -39 247 -253 301 -329 30 -42 87
-121 126 -174 38 -53 105 -149 147 -212 90 -136 164 -239 192 -266 11 -11 27
-31 36 -44 9 -14 19 -23 22 -20 3 3 9 61 15 130 l9 125 2 -131 c1 -99 5 -139
17 -164 l17 -33 14 27 c8 15 13 35 12 44 -2 20 3 34 47 128 19 38 34 75 34 81
0 5 9 20 20 33 11 13 20 29 20 37 0 17 41 106 52 114 5 3 8 10 7 15 -1 5 3 22
9 37 7 16 12 33 12 38 0 5 5 9 10 9 6 0 9 3 8 8 0 4 1 14 5 22 3 8 13 38 23
65 10 28 22 56 27 63 5 6 6 12 2 12 -5 0 0 9 10 20 14 15 15 20 4 20 -10 0
-11 2 -2 8 10 7 35 55 37 74 1 4 7 13 14 19 6 7 12 23 12 36 0 13 7 26 15 29
13 5 13 9 3 22 -10 12 -10 14 0 8 7 -4 12 -1 12 9 0 8 5 25 12 38 6 12 14 29
18 37 4 8 19 37 34 63 14 27 24 52 21 56 -2 5 4 20 15 34 11 14 20 32 20 41 0
9 5 16 12 16 6 0 8 3 5 7 -4 3 1 16 11 27 34 38 113 184 135 249 6 16 -63 17
-1363 17 -754 0 -1370 -3 -1370 -7z m2017 -1160 c-3 -10 -5 -4 -5 12 0 17 2
24 5 18 2 -7 2 -21 0 -30z"/>
<path d="M4964 7191 c4 -5 -4 -7 -16 -3 -14 3 -19 2 -14 -6 4 -8 0 -12 -11
-12 -15 0 -16 -2 -3 -10 13 -9 13 -10 0 -11 -8 -1 -20 -1 -26 0 -6 1 -18 -6
-25 -16 -13 -15 -12 -16 10 -10 22 6 23 5 5 -12 -11 -10 -23 -18 -29 -17 -5 0
-9 -4 -10 -11 0 -7 -5 -17 -12 -24 -6 -6 -9 -18 -6 -25 3 -8 1 -14 -5 -14 -5
0 -12 -10 -15 -22 -9 -41 -32 -93 -49 -111 -9 -11 -23 -58 -32 -105 -20 -112
-49 -390 -42 -408 11 -28 43 -13 89 42 26 31 47 66 48 78 0 19 1 20 8 2 6 -16
24 1 107 103 54 67 112 139 127 159 16 20 40 49 55 65 35 36 47 128 21 156
-10 10 -16 30 -15 45 2 18 -2 27 -17 32 -20 6 -20 7 -1 22 18 14 18 14 0 8
-14 -5 -17 -2 -12 10 3 8 -1 22 -9 31 -8 8 -12 19 -9 25 4 7 2 8 -4 4 -8 -5
-12 1 -13 16 0 13 -3 17 -6 10 -2 -6 -9 -10 -14 -6 -5 3 -9 -1 -9 -8 0 -8 -3
-9 -8 -3 -7 11 -48 35 -57 35 -4 0 -4 -4 -1 -9z"/>
<path d="M4677 6737 c-9 -17 -21 -39 -26 -47 -6 -8 -16 -27 -23 -41 -38 -76
-69 -129 -77 -129 -4 0 -14 -18 -21 -40 -7 -22 -17 -40 -21 -40 -5 0 -6 -7 -3
-15 4 -8 1 -15 -6 -15 -6 0 -10 -11 -8 -27 2 -21 8 -27 21 -25 10 2 24 -1 30
-6 7 -4 35 -6 64 -4 44 3 52 7 57 27 8 30 38 387 33 391 -2 2 -11 -11 -20 -29z"/>
<path d="M1391 6504 c-13 -19 -24 -42 -24 -50 0 -7 -6 -14 -12 -14 -7 0 -29
-28 -50 -62 -21 -35 -46 -72 -55 -83 -9 -11 -37 -49 -61 -86 -62 -92 -68 -101
-79 -126 -5 -12 -24 -39 -43 -60 -39 -45 -72 -95 -69 -105 1 -5 -4 -8 -12 -8
-8 0 -16 -10 -20 -23 -3 -12 -13 -31 -23 -42 -17 -18 -43 -55 -68 -93 -5 -9
-18 -25 -27 -36 -10 -11 -24 -32 -30 -48 -7 -15 -16 -28 -20 -28 -5 0 -8 -6
-8 -14 0 -7 -7 -19 -15 -26 -8 -7 -15 -21 -15 -32 0 -10 -4 -16 -10 -13 -6 3
-10 0 -10 -8 0 -8 -7 -20 -15 -27 -9 -7 -13 -15 -10 -18 3 -3 -6 -20 -20 -38
-14 -18 -25 -35 -25 -39 0 -3 -5 -11 -10 -18 -31 -37 -80 -107 -80 -115 0 -5
-11 -14 -24 -22 -16 -8 -22 -18 -19 -28 4 -10 2 -13 -5 -8 -7 4 -12 2 -12 -4
0 -7 -30 -42 -67 -79 -63 -62 -97 -87 -116 -82 -4 0 -10 -6 -13 -14 -4 -8 -12
-15 -19 -15 -8 0 -21 -7 -29 -16 -9 -8 -16 -13 -16 -10 0 3 -24 -5 -54 -18
-30 -13 -57 -22 -60 -18 -3 3 -6 1 -6 -4 0 -5 -28 -10 -62 -11 -33 -1 -66 -7
-72 -13 -8 -8 -6 -9 9 -5 19 6 19 6 3 -8 -17 -13 -18 -144 -18 -2476 l0 -2461
140 0 c138 0 140 0 141 23 2 39 6 90 13 152 3 33 8 87 11 119 9 96 53 257 76
276 8 6 40 68 39 75 -1 3 8 22 19 43 11 20 27 60 37 87 10 28 24 58 32 68 8 9
11 17 7 17 -4 0 2 9 15 20 13 11 21 20 18 20 -3 0 -1 24 4 53 4 28 10 72 13
97 3 25 9 59 15 75 8 25 9 18 7 -37 -2 -70 11 -78 20 -12 3 22 11 46 18 54 8
8 14 20 16 25 1 6 3 15 4 20 2 6 10 38 19 73 16 61 56 135 86 159 8 6 11 15 7
19 -4 5 5 22 22 39 16 16 43 44 59 60 16 17 49 48 73 71 38 34 113 117 137
149 23 31 42 65 36 65 -4 0 -1 7 6 15 7 8 9 15 6 15 -4 0 -2 10 5 23 6 12 -20
-7 -57 -43 -140 -133 -135 -121 14 31 83 86 152 161 152 167 0 6 9 14 20 17
11 3 20 13 20 21 0 8 4 14 9 14 11 0 119 100 109 100 -4 0 5 12 21 28 15 15
26 32 24 39 -2 6 7 29 21 51 14 22 23 42 20 45 -3 2 6 13 19 23 12 11 26 28
31 39 5 14 9 16 15 7 5 -9 12 -7 27 7 29 28 64 70 64 78 0 3 7 15 17 25 27 30
-3 23 -116 -26 -152 -67 -275 -157 -450 -329 -63 -62 -103 -96 -91 -77 28 40
186 202 245 249 22 17 31 28 20 24 -36 -15 -229 -115 -295 -153 -103 -60 -536
-293 -635 -342 -95 -48 -233 -103 -240 -96 -2 2 37 21 88 42 107 45 335 162
562 289 88 50 269 147 402 217 271 143 516 293 534 326 14 27 6 54 -17 54 -25
0 -205 -93 -290 -151 -74 -49 -103 -60 -67 -23 33 33 177 121 285 175 70 34
108 60 112 72 7 27 -24 68 -47 63 -17 -4 -17 -3 -3 13 23 25 0 91 -32 91 -6 0
-8 9 -5 19 5 19 3 19 -54 6 -200 -47 -542 -196 -740 -323 -13 -8 -23 -12 -23
-9 0 7 148 101 230 145 100 54 258 121 410 175 174 63 161 56 148 77 -9 14 -9
22 1 34 12 14 9 16 -22 16 -46 0 -178 -25 -299 -56 -54 -14 -103 -24 -110 -22
-16 6 77 34 251 78 136 34 145 38 152 63 4 15 3 29 -2 33 -5 3 -9 12 -9 20 0
9 -7 22 -15 31 -8 8 -13 18 -10 23 3 4 -2 13 -10 20 -10 9 -12 17 -5 30 7 13
5 21 -5 30 -12 10 -34 10 -102 1 -48 -6 -88 -9 -90 -7 -2 2 32 12 77 22 44 10
84 21 90 24 10 6 9 11 -30 134 -19 62 -20 70 -6 85 9 10 14 20 10 23 -10 11
-13 69 -4 93 6 15 6 27 0 30 -6 4 -10 17 -10 30 0 13 -4 27 -10 30 -5 3 -10
15 -10 26 0 12 -7 19 -18 19 -22 0 -25 40 -4 53 13 9 12 42 -4 137 -8 51 -7
75 9 175 11 63 13 133 9 233 -3 87 -1 164 6 195 18 87 32 187 38 282 6 83 10
97 57 185 50 93 51 97 53 190 1 57 8 113 18 139 21 58 20 79 -6 126 -75 140
-105 285 -74 371 8 25 16 113 20 244 5 167 4 214 -9 253 -15 50 -54 127 -64
127 -3 0 -17 -16 -30 -36z"/>
<path d="M3870 6110 c-14 -42 -8 -69 17 -77 18 -6 27 87 11 104 -13 12 -16 8
-28 -27z"/>
<path d="M4010 6098 c0 -27 -21 -78 -32 -78 -5 0 -8 9 -8 21 0 30 -23 18 -32
-18 -4 -16 -19 -41 -33 -55 -31 -31 -53 -131 -35 -153 9 -11 9 -23 1 -46 -6
-18 -11 -51 -11 -75 0 -35 3 -42 15 -38 11 5 13 2 8 -12 -4 -12 -3 -15 5 -10
8 5 12 38 12 92 0 46 3 84 8 84 10 0 32 -95 32 -137 0 -36 -16 -85 -32 -94
-14 -9 -24 -139 -11 -139 6 0 16 27 22 60 8 40 17 60 27 60 7 0 14 -2 14 -5 0
-5 -18 -51 -33 -83 -8 -17 -6 -30 9 -60 25 -47 20 -76 -7 -41 -16 20 -19 21
-19 6 0 -10 4 -27 10 -37 6 -11 6 -44 0 -92 l-9 -73 2 73 c2 39 -1 72 -6 72
-4 0 -7 20 -6 45 3 47 -2 57 -26 61 -12 2 -15 -10 -15 -56 0 -32 4 -60 10 -62
5 -2 4 -24 -3 -58 -15 -65 -27 -55 -30 25 -1 30 -5 55 -9 55 -5 0 -8 -8 -8
-18 0 -11 -7 -32 -15 -48 -19 -40 -33 -150 -17 -140 7 4 9 17 6 31 -3 12 -1
26 5 29 7 5 11 -9 11 -41 l1 -48 14 38 c17 49 25 57 25 24 0 -14 4 -28 8 -31
5 -3 7 7 4 23 -4 27 21 61 35 47 4 -4 1 -12 -7 -17 -11 -8 -12 -12 -3 -16 8
-3 11 -14 7 -29 -4 -14 -1 -31 6 -39 7 -9 10 -27 7 -43 -5 -23 -2 -28 14 -29
16 -2 19 4 17 35 -1 20 -1 62 1 92 l4 55 7 -50 c4 -27 6 -60 3 -72 -3 -13 0
-23 6 -23 15 0 32 35 22 46 -5 5 -12 45 -16 89 -11 133 -10 168 3 173 7 2 12
15 12 28 0 13 5 24 10 24 16 0 12 46 -7 86 -14 28 -15 38 -5 41 6 3 12 13 12
24 0 12 -5 16 -15 13 -12 -5 -15 1 -13 27 1 19 6 40 11 47 6 7 11 38 13 70 2
31 9 86 17 122 l14 65 17 -37 c9 -21 16 -46 16 -57 0 -11 9 -29 21 -40 11 -10
23 -37 26 -60 3 -23 10 -41 14 -41 14 0 10 57 -6 96 -31 75 -17 214 22 214 7
0 13 5 13 11 0 5 4 8 8 5 12 -7 -10 98 -22 106 -6 4 -21 -9 -33 -28 -20 -29
-27 -33 -43 -24 -11 6 -20 19 -20 30 0 10 -4 22 -10 25 -6 3 -10 -4 -10 -17z
m67 -83 c0 -8 -4 -15 -9 -15 -10 0 -11 14 -1 23 9 10 10 9 10 -8z"/>
<path d="M3718 6095 c-2 -3 -18 -7 -34 -9 -16 -2 -42 -10 -58 -17 -34 -16
-136 -112 -136 -128 0 -6 -9 -20 -20 -31 -11 -11 -16 -20 -10 -20 5 0 7 -7 3
-15 -3 -9 -2 -15 3 -14 36 6 42 -1 33 -36 -8 -28 -7 -39 6 -52 12 -12 19 -13
28 -4 35 35 37 -16 2 -57 -24 -28 -26 -62 -4 -62 5 0 9 -6 9 -14 0 -8 7 -13
16 -12 11 0 22 -12 30 -34 7 -19 13 -30 14 -25 1 6 5 1 10 -10 4 -11 6 -31 3
-45 -3 -14 -2 -21 3 -17 14 13 33 -80 24 -114 -5 -17 -5 -29 1 -29 5 0 2 -16
-6 -36 -17 -40 -19 -56 -6 -35 6 10 9 3 9 -22 0 -30 9 -66 30 -127 4 -11 7 -8
10 8 3 19 6 21 18 11 13 -11 14 -3 9 62 -4 41 -2 102 3 137 5 37 5 86 0 119
-5 34 -5 67 0 83 7 20 5 37 -10 69 -17 38 -18 49 -8 92 10 41 9 55 -6 95 -10
26 -14 49 -8 53 5 3 24 23 43 43 27 30 36 49 42 95 10 70 3 103 -20 103 -10 0
-20 -2 -23 -5z"/>
<path d="M4310 6090 c0 -5 -14 -17 -30 -25 -26 -14 -30 -21 -29 -53 2 -62 20
-135 44 -177 17 -30 21 -45 13 -58 -5 -10 -15 -45 -22 -78 -6 -33 -16 -60 -21
-60 -6 0 -13 -9 -18 -21 -4 -12 -13 -18 -22 -14 -25 9 -45 -5 -45 -31 0 -22
-2 -24 -15 -13 -20 17 -21 -6 -1 -26 8 -8 18 -35 22 -60 6 -43 -1 -83 -37
-200 -5 -17 -9 -38 -9 -47 0 -9 -4 -17 -10 -17 -17 0 -10 -54 9 -77 27 -32 36
-28 13 5 -19 25 -19 30 -5 72 8 25 16 46 17 47 1 1 2 -22 2 -52 0 -30 5 -60
12 -67 9 -9 12 -6 12 17 0 22 3 26 9 16 7 -11 11 -5 16 22 4 20 11 34 16 31
11 -6 11 -7 15 86 4 93 14 146 24 130 4 -7 10 4 14 27 13 73 37 135 51 129 8
-3 20 9 30 30 16 33 18 34 31 17 7 -10 14 -23 14 -30 0 -6 5 -15 10 -18 14 -9
32 43 21 62 -4 9 -6 24 -3 35 7 28 32 3 32 -33 0 -16 5 -29 11 -29 7 0 9 10 5
24 -3 14 -1 28 5 32 8 4 9 26 5 65 -6 51 -5 58 9 53 8 -3 15 -13 15 -21 0 -9
6 -13 15 -9 9 3 19 -3 25 -14 17 -32 27 -23 39 37 15 77 14 116 -5 139 -15 19
-15 18 -11 -3 3 -13 1 -23 -4 -23 -5 0 -9 -7 -9 -15 0 -8 -5 -15 -11 -15 -5 0
-7 -4 -4 -10 3 -5 2 -10 -4 -10 -16 0 -90 81 -118 130 -34 59 -82 110 -105
110 -10 0 -18 -4 -18 -10z"/>
<path d="M3360 6042 c0 -5 -11 -14 -25 -20 -42 -19 -27 -99 16 -90 15 3 16
-14 6 -74 -5 -33 -3 -38 13 -38 10 0 20 -7 22 -17 2 -12 11 -5 32 25 15 22 26
47 23 54 -2 7 1 24 8 38 7 14 15 49 18 79 6 52 6 53 -12 37 -17 -16 -19 -16
-26 1 -6 17 -8 16 -25 -4 -21 -27 -30 -29 -30 -9 0 8 -4 18 -10 21 -5 3 -10 2
-10 -3z m70 -141 c0 -18 -27 -37 -38 -26 -5 4 26 45 35 45 1 0 3 -9 3 -19z"/>
<path d="M2160 6032 c0 -13 23 -32 39 -32 11 0 10 4 -4 20 -19 21 -35 26 -35
12z"/>
<path d="M3255 5991 c-15 -17 -15 -26 -4 -75 7 -31 15 -56 19 -56 18 0 29 134
11 144 -4 3 -16 -3 -26 -13z"/>
<path d="M3171 5968 c0 -7 4 -22 8 -33 8 -19 8 -19 15 2 8 24 1 43 -15 43 -5
0 -9 -6 -8 -12z"/>
<path d="M4654 5954 c3 -9 6 -17 6 -20 0 -2 6 -1 14 2 10 4 15 -5 18 -30 5
-41 -14 -49 -33 -14 -9 17 -13 18 -19 7 -12 -21 -15 -110 -4 -139 8 -23 9 -21
14 20 l6 45 10 -35 11 -35 12 38 c21 61 19 131 -3 156 -22 25 -41 28 -32 5z"/>
<path d="M4520 5925 c0 -20 17 -28 36 -17 17 9 13 14 -18 25 -12 4 -18 1 -18
-8z"/>
<path d="M1826 5891 c-2 -3 -4 -37 -3 -74 0 -63 2 -70 31 -94 26 -22 32 -23
34 -9 4 19 14 20 30 4 10 -10 14 -10 21 0 6 10 10 10 20 -2 7 -8 19 -12 26 -9
12 4 12 10 0 39 -10 24 -11 42 -5 59 8 21 4 31 -20 59 -26 30 -35 33 -80 33
-28 0 -52 -2 -54 -6z"/>
<path d="M4727 5864 c-4 -4 -7 -14 -7 -23 0 -11 3 -12 11 -4 6 6 10 16 7 23
-2 6 -7 8 -11 4z"/>
<path d="M4807 5854 c-13 -13 -7 -44 8 -44 16 0 17 5 6 33 -3 10 -10 15 -14
11z"/>
<path d="M3786 5794 c-7 -18 0 -34 15 -34 12 0 12 37 0 44 -5 3 -12 -1 -15
-10z"/>
<path d="M4028 5750 c-3 -17 -1 -30 2 -30 4 0 5 -12 2 -27 -5 -26 -4 -27 12
-11 13 13 15 26 10 53 -8 46 -21 53 -26 15z"/>
<path d="M4701 5754 c0 -11 3 -14 6 -6 3 7 2 16 -1 19 -3 4 -6 -2 -5 -13z"/>
<path d="M5877 5680 c-45 -72 -54 -92 -42 -96 14 -6 95 57 104 80 2 6 9 14 15
18 8 5 7 11 -1 19 -8 8 -9 18 -2 31 7 13 6 18 -3 18 -9 0 -9 3 2 10 13 9 13
10 0 10 -8 0 -41 -41 -73 -90z"/>
<path d="M4647 5714 c-4 -4 -7 -23 -6 -43 l1 -36 9 33 c11 36 9 58 -4 46z"/>
<path d="M4241 5694 c0 -11 3 -14 6 -6 3 7 2 16 -1 19 -3 4 -6 -2 -5 -13z"/>
<path d="M4775 5690 c-3 -11 -4 -29 0 -39 6 -19 7 -19 26 -3 23 20 24 29 5 48
-19 19 -23 18 -31 -6z"/>
<path d="M5027 5690 c-11 -11 -27 -15 -45 -12 -23 4 -25 3 -15 -10 7 -8 10
-18 7 -21 -9 -9 46 -29 62 -23 15 6 29 65 18 76 -5 4 -17 0 -27 -10z"/>
<path d="M5971 5633 c-6 -7 -11 -16 -11 -21 0 -5 -14 -27 -31 -48 -18 -22 -43
-63 -56 -92 -24 -51 -24 -54 -7 -73 18 -20 18 -20 -9 -10 -22 9 -28 7 -37 -9
-6 -11 -8 -20 -5 -20 3 0 1 -9 -5 -20 -10 -18 -8 -20 19 -20 16 0 43 6 60 13
29 12 30 14 13 30 -16 17 -15 17 16 11 28 -6 32 -4 32 15 0 12 6 21 15 21 8 0
15 5 15 10 0 6 6 10 13 10 11 0 59 90 72 137 3 12 -1 36 -10 52 -12 24 -21 30
-44 28 -15 -1 -33 -7 -40 -14z"/>
<path d="M4005 5620 c-3 -11 -2 -28 4 -37 8 -15 10 -11 11 20 0 41 -5 47 -15
17z"/>
<path d="M3852 5608 c-16 -16 -16 -71 0 -66 9 3 22 78 13 78 0 0 -6 -5 -13
-12z"/>
<path d="M4477 5586 c-5 -15 -6 -31 -3 -34 8 -8 18 25 14 45 -3 13 -6 10 -11
-11z"/>
<path d="M5117 5603 c-4 -3 -7 -11 -7 -17 0 -6 5 -5 12 2 6 6 9 14 7 17 -3 3
-9 2 -12 -2z"/>
<path d="M4532 5560 c0 -14 2 -19 5 -12 2 6 2 18 0 25 -3 6 -5 1 -5 -13z"/>
<path d="M1862 5539 c5 -12 1 -15 -17 -11 -18 3 -27 -3 -39 -27 -9 -17 -13
-31 -9 -31 5 0 3 -4 -3 -8 -6 -4 -9 -21 -7 -38 4 -25 9 -31 24 -27 10 3 17 9
14 13 -3 4 12 4 33 -1 20 -4 38 -4 40 0 2 5 12 7 22 4 11 -3 20 -3 20 0 0 16
-51 115 -66 127 -16 13 -17 13 -12 -1z"/>
<path d="M3370 5501 c0 -6 4 -13 10 -16 6 -3 7 1 4 9 -7 18 -14 21 -14 7z"/>
<path d="M3335 5456 c-5 -11 -2 -29 8 -46 9 -15 21 -45 25 -66 l9 -39 8 44 c6
36 4 47 -9 57 -10 7 -21 25 -25 41 -7 24 -10 26 -16 9z"/>
<path d="M4550 5455 c0 -11 -7 -39 -15 -62 -14 -41 -31 -243 -20 -243 9 0 42
81 49 120 7 35 7 35 -8 10 -21 -35 -20 -9 4 78 18 66 19 75 5 95 -14 20 -15
21 -15 2z"/>
<path d="M4020 5408 c0 -19 -4 -26 -14 -22 -17 7 -27 -51 -21 -126 13 -156 26
-208 34 -132 5 55 5 62 -3 132 -5 46 -4 61 3 50 6 -8 11 -26 11 -39 0 -13 2
-22 5 -19 11 11 6 150 -6 169 -6 10 -9 7 -9 -13z m-3 -60 c-3 -8 -6 -5 -6 6
-1 11 2 17 5 13 3 -3 4 -12 1 -19z"/>
<path d="M3335 5345 c2 -27 7 -58 11 -68 5 -14 0 -12 -19 7 -14 14 -27 35 -29
47 -2 13 -9 25 -17 27 -10 3 -12 0 -7 -13 4 -12 -1 -26 -14 -40 -28 -30 -42
-108 -23 -135 17 -25 6 -26 -20 -3 -16 15 -14 8 8 -42 15 -33 30 -70 32 -82 3
-13 9 -23 13 -23 4 0 10 -10 14 -22 5 -22 6 -22 20 -3 15 20 15 19 16 -5 l1
-25 12 25 c6 14 18 32 26 39 18 20 10 257 -12 321 l-16 45 4 -50z"/>
<path d="M5920 5297 c-24 -12 -58 -67 -60 -94 0 -7 7 -13 15 -13 8 0 15 -4 15
-10 0 -5 9 -10 21 -10 12 0 17 -4 14 -11 -4 -6 2 -13 14 -16 11 -3 19 -9 16
-13 -3 -4 1 -13 9 -19 17 -15 129 -24 121 -11 -4 6 -1 10 5 10 15 0 4 37 -22
74 -11 16 -15 25 -9 21 9 -5 9 -1 -1 14 -7 12 -16 21 -20 21 -5 0 -8 6 -8 13
0 36 -70 64 -110 44z"/>
<path d="M4575 5254 c-8 -21 -18 -49 -22 -63 -3 -14 -14 -38 -25 -53 -14 -20
-20 -49 -22 -104 -3 -71 -2 -75 11 -53 13 23 14 22 8 -16 -4 -31 -3 -37 5 -25
9 12 11 9 7 -13 -6 -35 10 -46 19 -12 3 14 11 25 18 25 28 1 87 120 59 120
-13 0 -13 93 -1 108 9 10 9 15 0 21 -7 4 -14 24 -16 45 -5 57 -22 66 -41 20z
m16 -136 c-7 -7 -19 -22 -27 -33 -15 -19 -15 -19 -8 5 4 14 14 30 23 37 20 14
27 9 12 -9z"/>
<path d="M3720 5104 c0 -27 4 -43 10 -39 6 3 10 24 10 46 0 21 -4 39 -10 39
-5 0 -10 -21 -10 -46z"/>
<path d="M3691 5114 c0 -11 3 -14 6 -6 3 7 2 16 -1 19 -3 4 -6 -2 -5 -13z"/>
<path d="M4102 5080 c0 -14 2 -19 5 -12 2 6 2 18 0 25 -3 6 -5 1 -5 -13z"/>
<path d="M4151 5084 c0 -11 3 -14 6 -6 3 7 2 16 -1 19 -3 4 -6 -2 -5 -13z"/>
<path d="M6120 5080 c0 -5 5 -10 11 -10 5 0 7 5 4 10 -3 6 -8 10 -11 10 -2 0
-4 -4 -4 -10z"/>
<path d="M3887 5073 c-4 -3 -7 -18 -6 -32 1 -26 1 -25 10 3 9 31 7 41 -4 29z"/>
<path d="M3980 5056 c0 -7 7 -19 15 -26 8 -7 15 -21 15 -32 0 -10 5 -16 10
-13 11 7 3 53 -13 73 -13 16 -27 15 -27 -2z"/>
<path d="M2750 4996 c-105 -17 -160 -31 -185 -50 -29 -21 -12 -30 24 -12 34
18 51 20 51 7 0 -5 -19 -16 -42 -26 -24 -9 -50 -22 -58 -29 -8 -7 -39 -12 -70
-11 -164 4 -162 4 -156 21 5 13 1 14 -27 8 -39 -8 -87 -44 -82 -61 2 -7 -2
-10 -11 -6 -8 3 -20 1 -27 -5 -6 -5 -36 -12 -66 -16 -33 -4 -66 -16 -86 -32
-17 -13 -39 -24 -48 -24 -10 0 -26 -9 -37 -20 -11 -11 -24 -20 -29 -20 -6 0
-16 -8 -23 -19 -7 -10 -23 -21 -36 -25 -12 -4 -30 -20 -40 -34 -17 -28 -51
-62 -61 -62 -4 0 -11 -10 -16 -22 -6 -13 -26 -26 -50 -33 -22 -6 -40 -15 -40
-20 -2 -35 -19 -55 -55 -65 -21 -6 -41 -17 -44 -26 -10 -25 -7 -112 4 -119 15
-9 12 -19 -15 -51 -17 -20 -23 -37 -21 -59 3 -26 7 -30 32 -28 63 4 93 14 88
27 -11 28 20 36 77 21 80 -22 84 -21 107 35 12 28 28 53 36 56 9 3 13 10 10
15 -3 5 1 9 8 9 10 0 9 3 -2 11 -11 8 -6 9 22 6 62 -9 80 1 76 39 -2 19 0 34
5 34 5 0 7 6 4 14 -4 9 2 16 15 19 14 4 19 11 15 21 -5 13 1 16 29 16 37 0 58
-25 34 -40 -9 -6 -7 -11 8 -19 11 -6 29 -11 38 -11 19 0 18 2 -50 71 -23 24
-25 29 -11 29 17 0 17 1 2 18 -30 33 -22 52 24 52 45 0 45 14 -1 23 -18 4 -30
13 -30 22 0 8 -6 15 -12 15 -10 0 -9 3 1 9 7 5 22 6 32 4 10 -3 26 -2 35 1 13
5 14 9 4 21 -11 13 -8 15 14 15 15 0 35 7 43 16 12 11 26 14 50 9 24 -4 35 -2
39 8 3 8 25 20 50 27 24 7 44 17 44 21 0 5 15 23 33 39 67 61 110 24 95 -83
-16 -111 16 -227 89 -329 19 -26 32 -48 29 -48 -4 0 -2 -8 3 -19 6 -10 35 -30
65 -44 162 -77 314 -104 417 -73 53 15 70 25 160 88 25 18 54 38 63 43 13 7
21 38 33 120 14 101 13 115 -2 169 -23 86 -123 218 -219 289 -108 81 -192 98
-356 73z m6 -141 c-22 -17 -36 -19 -36 -7 0 14 12 22 34 22 21 -1 21 -1 2 -15z
m217 -15 c23 -11 51 -27 61 -35 24 -18 12 -34 -12 -17 -9 7 -37 21 -62 32 -92
41 -88 39 -57 39 15 1 46 -8 70 -19z m-258 -530 c3 -5 2 -10 -4 -10 -5 0 -13
5 -16 10 -3 6 -2 10 4 10 5 0 13 -4 16 -10z m125 -49 c0 -5 -9 -7 -20 -4 -11
3 -20 7 -20 9 0 2 9 4 20 4 11 0 20 -4 20 -9z"/>
<path d="M3692 4960 c0 -14 2 -19 5 -12 2 6 2 18 0 25 -3 6 -5 1 -5 -13z"/>
<path d="M3881 4964 c0 -11 3 -14 6 -6 3 7 2 16 -1 19 -3 4 -6 -2 -5 -13z"/>
<path d="M3904 4966 c-3 -8 -1 -23 5 -33 9 -15 10 -13 11 15 0 34 -7 42 -16
18z"/>
<path d="M3881 4924 c0 -11 3 -14 6 -6 3 7 2 16 -1 19 -3 4 -6 -2 -5 -13z"/>
<path d="M3680 4919 c0 -5 5 -7 10 -4 6 3 10 8 10 11 0 2 -4 4 -10 4 -5 0 -10
-5 -10 -11z"/>
<path d="M3900 4889 c0 -5 5 -7 10 -4 6 3 10 8 10 11 0 2 -4 4 -10 4 -5 0 -10
-5 -10 -11z"/>
<path d="M4819 4862 c-86 -29 -154 -70 -209 -128 -27 -29 -53 -54 -58 -56 -16
-7 -66 -84 -83 -128 -20 -52 -23 -98 -13 -208 6 -70 7 -73 38 -86 18 -8 43
-26 55 -42 25 -32 129 -87 216 -115 76 -24 151 -23 240 2 39 11 81 23 95 26
14 3 46 21 72 40 26 18 52 33 57 33 5 0 21 16 35 35 15 19 22 35 15 35 -14 0
-9 23 26 115 16 42 29 100 32 145 3 41 10 82 14 92 14 26 46 11 105 -48 29
-29 68 -60 86 -68 18 -8 44 -22 58 -30 14 -8 33 -17 43 -20 9 -3 17 -15 17
-26 0 -11 5 -20 10 -20 6 0 10 -7 10 -15 0 -10 11 -15 35 -15 24 0 35 -5 35
-15 0 -8 10 -20 22 -26 l23 -12 -23 -10 c-12 -6 -22 -16 -22 -23 0 -7 -8 -18
-17 -23 -14 -8 -10 -10 23 -11 56 0 75 -23 44 -50 -18 -16 -21 -23 -12 -32 9
-9 12 -9 12 0 0 7 5 12 11 12 5 0 7 -4 4 -10 -3 -5 0 -7 8 -4 8 3 17 -1 20 -9
3 -8 26 -19 52 -26 48 -12 65 -32 46 -55 -6 -7 -8 -16 -4 -20 4 -4 1 -11 -7
-16 -12 -7 -8 -12 17 -20 17 -6 38 -22 46 -34 8 -12 33 -28 55 -35 38 -13 56
-36 53 -67 -1 -6 15 -19 35 -30 l36 -19 -7 -55 c-11 -88 -10 -155 3 -154 7 1
18 2 25 3 15 2 60 138 51 153 -4 6 -6 41 -6 77 1 36 -3 82 -7 101 -5 19 -12
61 -16 92 -6 52 -11 61 -61 110 -48 47 -54 57 -54 93 0 33 -6 47 -30 70 -16
16 -30 34 -30 42 0 7 -9 17 -20 23 -11 6 -20 8 -20 4 0 -4 -10 2 -22 13 -13
12 -39 28 -58 36 -19 8 -63 37 -97 64 -38 31 -80 55 -107 62 -24 6 -59 23 -77
38 -30 26 -158 77 -168 67 -2 -2 4 -14 15 -25 19 -22 19 -22 -6 -16 -60 14
-130 43 -130 54 0 6 -15 20 -32 32 -18 11 -49 34 -69 51 -20 17 -57 37 -82 45
-43 13 -47 13 -47 -2 0 -14 -3 -13 -20 5 -42 45 -191 63 -281 34z m141 -162
c15 -11 42 -20 59 -20 37 0 41 -17 6 -26 -18 -4 -44 4 -90 27 -36 19 -65 38
-65 43 0 14 59 -2 90 -24z m-105 -560 c-3 -5 -12 -7 -20 -3 -21 7 -19 13 6 13
11 0 18 -4 14 -10z m118 3 c-7 -2 -21 -2 -30 0 -10 3 -4 5 12 5 17 0 24 -2 18
-5z"/>
<path d="M3610 4840 c0 -5 5 -10 10 -10 6 0 10 5 10 10 0 6 -4 10 -10 10 -5 0
-10 -4 -10 -10z"/>
<path d="M3626 4803 c-4 -13 -12 -23 -17 -23 -5 0 -9 -5 -9 -12 0 -7 9 -3 21
9 12 11 19 27 17 34 -3 9 -7 6 -12 -8z"/>
<path d="M4216 4794 c-3 -9 0 -25 8 -36 13 -19 14 -19 18 -1 9 40 -13 71 -26
37z"/>
<path d="M4021 4774 c0 -11 3 -14 6 -6 3 7 2 16 -1 19 -3 4 -6 -2 -5 -13z"/>
<path d="M4256 4774 c-4 -9 -4 -19 -1 -22 2 -3 7 3 11 12 4 9 4 19 1 22 -2 3
-7 -3 -11 -12z"/>
<path d="M4208 4705 c2 -19 6 -35 8 -35 2 0 4 16 4 35 0 19 -4 35 -8 35 -4 0
-6 -16 -4 -35z"/>
<path d="M3922 4650 c0 -14 2 -19 5 -12 2 6 2 18 0 25 -3 6 -5 1 -5 -13z"/>
<path d="M3611 4634 c0 -11 3 -14 6 -6 3 7 2 16 -1 19 -3 4 -6 -2 -5 -13z"/>
<path d="M4012 4630 c0 -14 2 -19 5 -12 2 6 2 18 0 25 -3 6 -5 1 -5 -13z"/>
<path d="M4178 4615 c-3 -14 1 -30 8 -36 11 -9 14 -6 14 19 0 38 -16 50 -22
17z"/>
<path d="M3911 4534 c0 -11 3 -14 6 -6 3 7 2 16 -1 19 -3 4 -6 -2 -5 -13z"/>
<path d="M4020 4421 c0 -5 5 -13 10 -16 6 -3 10 -2 10 4 0 5 -4 13 -10 16 -5
3 -10 2 -10 -4z"/>
<path d="M2120 4370 c0 -6 7 -10 15 -10 8 0 15 2 15 4 0 2 -7 6 -15 10 -8 3
-15 1 -15 -4z"/>
<path d="M2555 4360 c3 -5 11 -10 16 -10 6 0 7 5 4 10 -3 6 -11 10 -16 10 -6
0 -7 -4 -4 -10z"/>
<path d="M2059 4335 c-25 -13 -26 -18 -18 -52 12 -51 12 -50 -13 -73 -21 -20
-21 -20 -2 -34 10 -8 37 -17 59 -21 25 -4 55 -19 80 -42 l40 -35 -45 6 -45 7
31 -28 c17 -15 34 -36 37 -45 3 -9 21 -21 38 -26 18 -4 34 -13 37 -20 2 -8 -3
-10 -15 -6 -15 5 -15 3 3 -13 12 -10 24 -26 27 -36 4 -9 19 -23 34 -29 15 -7
31 -16 34 -20 3 -5 20 -19 37 -32 26 -19 42 -22 84 -20 47 4 50 3 25 -7 -15
-6 -25 -14 -22 -19 3 -4 -1 -10 -9 -13 -9 -4 -12 -14 -9 -27 4 -13 0 -26 -8
-31 -11 -7 -9 -9 8 -9 12 0 25 5 28 10 3 6 20 10 38 10 29 0 30 -1 11 -15 -18
-14 -18 -14 8 -15 15 0 30 -5 33 -10 5 -8 11 -8 19 -1 9 8 21 7 42 -3 31 -16
90 -9 89 9 -1 16 -48 62 -72 69 -13 4 -23 12 -23 17 0 13 9 11 44 -9 17 -11
57 -25 89 -32 32 -7 60 -17 63 -22 7 -11 34 -10 34 2 0 6 -9 10 -20 10 -11 0
-20 4 -20 9 0 5 -15 14 -32 22 -18 7 -44 21 -57 31 -13 10 -31 18 -40 18 -10
0 -32 11 -51 25 -38 28 -33 34 5 9 14 -9 34 -14 45 -11 10 3 36 -4 56 -15 20
-10 39 -17 42 -14 2 3 -6 10 -19 15 l-24 10 23 0 c54 2 -30 53 -93 56 -22 2
-42 -1 -45 -5 -13 -20 -47 -18 -75 5 -36 29 -30 39 14 22 27 -10 34 -10 41 3
8 14 21 16 88 12 13 -1 20 -7 17 -12 -7 -11 36 -31 63 -29 9 0 1 6 -18 11 -34
11 -34 11 -10 18 14 5 18 8 10 9 -28 2 -130 36 -130 43 0 4 -19 21 -42 38 -34
25 -37 30 -19 30 12 0 20 3 18 8 -3 4 20 6 51 5 45 -2 50 0 27 6 -16 4 -47 15
-69 25 -31 13 -49 14 -99 6 -62 -10 -107 -1 -71 15 11 4 37 9 60 10 23 1 50 7
60 13 16 10 12 12 -26 13 -25 1 -58 1 -75 0 l-30 -1 25 11 25 12 -25 7 c-23 8
-23 8 8 9 17 1 32 -3 32 -9 0 -5 12 -10 28 -10 23 1 25 2 9 11 -10 6 -46 16
-80 24 -34 7 -51 14 -37 14 44 2 0 21 -50 21 -39 1 -42 3 -21 11 l24 10 -32
24 c-18 13 -51 27 -72 30 -43 7 -51 21 -16 28 12 3 -3 3 -34 1 -38 -3 -61 1
-75 11 -23 18 -23 18 -55 0z m98 -41 c-3 -3 -12 -4 -19 -1 -8 3 -5 6 6 6 11 1
17 -2 13 -5z m210 -130 c-3 -3 -12 -4 -19 -1 -8 3 -5 6 6 6 11 1 17 -2 13 -5z
m163 -114 c12 -8 9 -10 -12 -10 -16 0 -28 5 -28 10 0 13 20 13 40 0z m-322
-18 c6 -18 -15 -14 -22 4 -4 10 -1 14 6 12 6 -2 14 -10 16 -16z m202 -44 c0
-6 -7 -7 -16 -4 -9 3 -18 6 -20 6 -3 0 -3 4 1 10 7 11 35 2 35 -12z m86 -3 c6
-8 24 -21 40 -30 l29 -15 -37 0 c-24 0 -37 4 -35 12 1 6 -12 16 -30 21 -17 5
-34 16 -38 25 -4 12 1 13 27 8 18 -3 38 -13 44 -21z m-176 -5 c12 -8 10 -9 -7
-7 -12 2 -26 6 -29 10 -11 11 19 8 36 -3z m107 -26 c-3 -3 -12 -4 -19 -1 -8 3
-5 6 6 6 11 1 17 -2 13 -5z"/>
<path d="M3397 4254 c-4 -4 -7 -29 -7 -55 0 -45 -1 -47 -24 -43 -13 2 -28 -2
-34 -9 -11 -12 -12 -20 -14 -78 0 -20 -5 -25 -18 -22 -10 3 -23 -5 -33 -20
-15 -23 -15 -24 10 -21 33 3 59 -6 43 -16 -6 -4 -12 -16 -13 -27 0 -13 -6 -19
-14 -16 -7 3 -10 9 -7 14 3 5 2 9 -3 9 -13 0 -35 -58 -27 -71 4 -7 3 -9 -3 -6
-6 4 -14 -1 -18 -11 -4 -10 -1 -21 9 -27 12 -8 9 -15 -22 -42 -20 -18 -31 -33
-24 -33 6 0 12 4 12 9 0 12 51 29 68 24 18 -7 15 -34 -9 -59 l-20 -21 25 2
c15 2 26 -1 26 -6 0 -5 -11 -9 -24 -9 -31 0 -42 -16 -23 -34 11 -12 15 -11 25
5 7 10 19 19 27 19 9 0 12 6 8 16 -8 22 17 14 31 -9 8 -13 7 -20 -4 -27 -12
-8 -12 -10 4 -16 14 -5 26 2 50 30 24 29 35 36 50 30 14 -5 17 -4 12 4 -7 11
-3 13 43 16 8 1 16 7 19 14 2 6 8 12 13 12 13 0 11 -34 -2 -47 -9 -9 -7 -11 7
-9 11 2 20 12 22 23 2 12 12 29 23 39 10 9 19 25 19 34 0 9 5 21 12 28 9 9 9
15 0 24 -9 9 -12 9 -12 0 0 -7 -9 -12 -20 -12 -24 0 -25 6 -4 27 8 9 11 19 6
22 -17 11 -10 39 9 34 19 -5 34 12 23 28 -5 8 -8 8 -13 0 -5 -8 -13 -5 -26 9
-10 11 -13 20 -7 20 6 0 12 -5 14 -12 3 -7 7 -5 11 6 7 17 3 18 -29 13 -30 -5
-34 -4 -24 8 8 10 9 15 2 15 -6 0 -14 -4 -17 -10 -11 -17 -25 -11 -25 11 0 19
-2 20 -17 8 -14 -12 -15 -12 -9 0 5 8 4 16 -3 21 -9 5 -9 11 3 23 21 21 22 45
1 27 -12 -10 -14 -6 -12 27 2 31 -1 38 -15 37 -10 -1 -18 3 -19 10 -3 40 -21
81 -32 70z m93 -244 c0 -5 -8 -10 -17 -10 -15 0 -16 2 -3 10 19 12 20 12 20 0z"/>
<path d="M4385 4199 c-6 -17 -9 -19 -16 -8 -6 10 -9 3 -9 -21 0 -19 -4 -42
-10 -50 -8 -12 -11 -12 -28 3 -23 21 -32 22 -32 2 0 -8 4 -15 9 -15 5 0 12 -7
15 -16 5 -14 4 -15 -8 -5 -12 10 -14 4 -12 -37 1 -26 5 -53 9 -59 9 -14 -12
-85 -24 -78 -5 4 -3 18 6 35 19 37 19 51 0 23 -10 -14 -22 -19 -35 -16 -26 7
-26 19 1 26 12 3 19 11 17 17 -2 6 -8 10 -13 8 -6 -2 -9 -7 -7 -12 2 -5 -6 -6
-17 -3 -14 3 -22 -1 -26 -14 -5 -15 -9 -16 -19 -6 -8 6 -11 19 -9 27 3 10 1 9
-7 -3 -9 -14 -6 -22 17 -43 15 -14 23 -23 18 -20 -6 2 -17 -5 -25 -17 -12 -20
-11 -21 2 -9 13 10 18 8 33 -14 9 -15 12 -24 7 -20 -6 3 -13 0 -15 -6 -3 -7
-6 -4 -7 7 -1 18 -2 17 -11 -4 -7 -17 -6 -27 2 -31 8 -6 8 -9 0 -14 -10 -7
-15 2 -37 63 -8 23 -18 3 -19 -39 -1 -32 2 -40 16 -40 10 0 21 -4 24 -10 3 -5
-2 -10 -12 -10 -13 0 -10 -7 15 -29 20 -19 32 -39 32 -55 0 -13 5 -37 11 -53
7 -20 12 -24 19 -14 4 8 15 11 23 8 8 -3 22 4 31 15 14 16 20 17 32 7 12 -10
12 -14 2 -20 -8 -6 2 -9 26 -9 37 0 38 1 21 14 -17 12 -18 16 -5 31 8 10 14
20 12 22 -2 3 0 8 4 11 4 4 3 1 -1 -7 -6 -11 -4 -13 9 -8 10 4 29 7 42 7 17 0
23 4 18 13 -4 6 2 4 13 -5 11 -10 26 -18 34 -18 9 1 6 8 -10 20 -24 21 -22 57
3 47 9 -4 7 7 -8 34 -18 33 -22 36 -24 18 -2 -12 2 -25 8 -29 15 -9 4 -30 -15
-30 -11 0 -13 8 -8 31 4 23 1 33 -15 44 -18 13 -19 20 -10 57 11 51 27 73 42
58 16 -16 46 -12 45 8 0 10 -3 12 -6 5 -8 -21 -21 -15 -37 18 -12 24 -13 35
-5 45 6 8 9 15 5 15 -3 1 -10 3 -16 4 -5 1 -14 3 -19 4 -4 0 -6 13 -3 27 3 17
1 25 -5 21 -15 -9 -22 26 -18 79 4 46 -9 60 -20 23z m-155 -370 c0 -6 -4 -7
-10 -4 -5 3 -10 11 -10 16 0 6 5 7 10 4 6 -3 10 -11 10 -16z"/>
<path d="M3850 4179 c0 -5 5 -7 10 -4 6 3 10 8 10 11 0 2 -4 4 -10 4 -5 0 -10
-5 -10 -11z"/>
<path d="M5646 4178 c3 -5 11 -8 17 -7 27 3 47 -2 47 -11 0 -5 -11 -10 -24
-10 -33 0 -57 -10 -50 -21 3 -5 -24 -9 -59 -9 -45 0 -68 -5 -77 -15 -7 -8 -24
-15 -39 -16 -37 -1 -66 -14 -66 -30 0 -8 -12 -15 -27 -17 -28 -3 -28 -3 -8
-24 19 -21 19 -21 -6 -34 -13 -7 -32 -11 -42 -8 -13 5 -14 4 -3 -4 11 -8 9
-11 -8 -17 -12 -3 -19 -9 -17 -13 2 -4 -21 -7 -51 -6 -55 1 -55 1 -32 -17 28
-21 75 -25 82 -6 2 8 17 3 45 -17 52 -36 54 -48 5 -30 -61 21 -72 14 -18 -12
l50 -24 -70 7 c-38 3 -82 12 -97 20 -16 7 -28 9 -28 4 0 -5 6 -12 13 -14 6 -3
2 -6 -10 -6 -23 -1 -43 -21 -21 -21 10 0 9 -3 -2 -9 -8 -6 -18 -7 -23 -4 -6 3
-75 7 -155 8 -87 2 -139 -1 -131 -6 8 -5 26 -9 40 -9 14 0 34 -7 45 -15 10 -8
26 -14 34 -15 13 0 13 1 0 10 -26 16 0 25 33 10 18 -7 58 -15 90 -18 42 -3 57
-7 54 -17 -3 -7 6 -18 21 -25 16 -7 22 -15 15 -17 -7 -3 -13 -12 -13 -21 0
-13 -3 -13 -12 -4 -10 10 -10 15 2 22 8 5 12 10 8 11 -9 2 -11 2 -51 14 -20 5
-33 3 -46 -9 -19 -18 -46 -22 -36 -6 3 6 -4 10 -17 9 -13 0 -17 -3 -10 -6 21
-8 3 -23 -29 -23 -60 0 -18 -17 58 -24 42 -3 82 -11 88 -17 7 -8 -3 -9 -38 -4
-32 4 -53 2 -62 -5 -8 -7 -22 -10 -31 -6 -19 7 -102 -13 -111 -27 -4 -6 4 -8
21 -5 14 3 26 1 26 -3 0 -5 5 -9 11 -9 5 0 7 5 4 10 -3 6 -2 10 4 10 5 0 13
-5 17 -11 4 -7 24 -9 56 -5 34 5 48 4 43 -4 -3 -5 -15 -10 -26 -10 -16 0 -19
-4 -14 -21 6 -19 4 -20 -27 -14 -38 8 -31 8 -83 6 -37 -2 -39 -3 -21 -16 11
-8 30 -15 42 -15 17 0 22 -5 19 -18 -3 -17 2 -18 53 -11 58 8 92 4 92 -11 0
-4 -17 -6 -37 -3 -44 6 -93 -10 -93 -31 0 -21 25 -26 59 -13 24 9 34 8 43 -1
9 -9 8 -12 -5 -12 -9 0 -17 -5 -17 -11 0 -18 169 8 245 36 62 24 183 17 214
-12 12 -11 40 -28 61 -38 43 -19 49 -29 25 -39 -18 -7 -20 -26 -2 -26 7 0 29
-9 49 -20 22 -11 59 -20 90 -21 78 -2 84 -1 85 19 1 9 9 37 18 62 23 61 10 87
-47 97 -32 5 -55 18 -88 50 -25 24 -54 52 -66 63 -22 21 -88 28 -99 10 -9 -15
-95 -50 -124 -50 -14 0 -37 -7 -51 -15 -50 -28 -93 -45 -114 -44 -11 0 -16 3
-9 5 8 4 6 11 -7 24 -15 15 -32 19 -79 17 -33 -1 -63 2 -67 6 -11 11 17 57 35
57 14 0 14 -2 1 -10 -10 -7 12 -9 72 -6 49 2 94 8 100 13 7 6 25 13 41 17 15
3 27 11 27 17 0 5 21 19 48 31 26 11 59 29 75 40 28 20 36 53 15 60 -7 3 -8 9
-3 19 5 8 10 21 10 29 0 10 12 16 38 18 20 2 49 9 63 17 14 7 42 11 62 8 20
-3 50 0 65 6 27 11 28 13 27 79 0 37 1 100 4 140 5 68 4 74 -14 79 -11 3 -20
12 -20 20 0 10 -11 13 -39 11 -22 -1 -37 -6 -35 -10z m-603 -385 c-7 -2 -19
-2 -25 0 -7 3 -2 5 12 5 14 0 19 -2 13 -5z m157 -13 c11 -7 5 -8 -20 -4 -43 8
-51 14 -19 14 13 0 31 -5 39 -10z m96 -65 c10 -8 15 -15 9 -14 -5 1 -17 -1
-26 -5 -8 -4 -26 -2 -40 3 -24 10 -24 10 -1 10 12 1 22 6 22 11 0 14 13 12 36
-5z m-111 -215 c18 -8 17 -9 -7 -9 -16 -1 -28 4 -28 9 0 12 8 12 35 0z"/>
<path d="M3516 4091 c-4 -7 -5 -15 -2 -18 9 -9 19 4 14 18 -4 11 -6 11 -12 0z"/>
<path d="M4110 4000 c0 -6 7 -10 15 -10 8 0 15 2 15 4 0 2 -7 6 -15 10 -8 3
-15 1 -15 -4z"/>
<path d="M2774 3986 c11 -9 16 -16 12 -16 -17 0 24 -30 50 -36 16 -4 35 -11
41 -16 7 -6 20 -8 28 -4 13 5 13 8 -2 26 -10 11 -23 20 -31 20 -7 0 -25 6 -40
14 -15 7 -38 17 -52 20 -24 7 -24 6 -6 -8z"/>
<path d="M4523 3975 c0 -8 4 -12 9 -9 5 3 6 10 3 15 -9 13 -12 11 -12 -6z"/>
<path d="M2640 3976 c0 -2 9 -6 20 -9 11 -3 18 -1 14 4 -5 9 -34 13 -34 5z"/>
<path d="M4431 3902 c0 -4 4 -16 9 -27 8 -19 9 -19 9 -1 1 16 3 17 18 5 15
-13 15 -12 6 5 -10 18 -44 32 -42 18z"/>
<path d="M4840 3900 c0 -5 4 -10 9 -10 6 0 13 5 16 10 3 6 -1 10 -9 10 -9 0
-16 -4 -16 -10z"/>
<path d="M2888 3883 c7 -3 16 -2 19 1 4 3 -2 6 -13 5 -11 0 -14 -3 -6 -6z"/>
<path d="M4114 3883 c3 -6 2 -14 -4 -18 -14 -9 -12 -22 3 -22 15 0 16 32 2 44
-4 5 -5 3 -1 -4z"/>
<path d="M2806 3825 c-4 -12 2 -15 27 -14 20 1 25 3 13 6 -15 4 -16 7 -5 14
11 7 9 9 -7 9 -12 0 -24 -7 -28 -15z"/>
<path d="M4560 3810 c0 -5 5 -10 11 -10 5 0 7 5 4 10 -3 6 -8 10 -11 10 -2 0
-4 -4 -4 -10z"/>
<path d="M4802 3770 c6 -21 77 -53 97 -44 14 6 13 8 -4 11 -54 10 -65 14 -81
30 -13 13 -16 14 -12 3z"/>
<path d="M4580 3742 c6 -13 14 -21 18 -18 3 4 -2 14 -12 24 -18 16 -18 16 -6
-6z"/>
<path d="M4946 3748 c7 -11 54 -11 54 0 0 5 -13 9 -30 9 -16 0 -27 -4 -24 -9z"/>
<path d="M2070 3741 c-8 -4 -42 -13 -75 -20 -33 -7 -69 -18 -80 -25 -11 -7
-45 -22 -76 -35 -43 -17 -61 -31 -77 -60 -12 -20 -30 -45 -42 -56 -11 -10 -20
-26 -20 -37 0 -10 -7 -18 -16 -18 -32 0 -1 -19 42 -26 33 -5 49 -3 62 9 21 19
113 30 145 18 15 -6 39 -6 63 0 22 5 53 11 69 13 17 2 58 16 92 30 35 14 77
26 95 26 42 0 78 10 78 21 0 5 -4 9 -10 9 -5 0 -39 14 -75 31 -53 25 -64 34
-55 45 9 10 6 14 -17 19 -55 13 -58 14 -37 30 18 14 18 14 -3 15 -13 0 -23 5
-23 10 0 12 -19 13 -40 1z"/>
<path d="M4650 3686 c0 -2 8 -10 18 -17 15 -13 16 -12 3 4 -13 16 -21 21 -21
13z"/>
<path d="M2584 3663 c5 -11 -4 -26 -25 -46 -30 -26 -36 -28 -66 -19 -46 14
-40 -7 9 -31 27 -13 47 -16 74 -11 35 6 36 8 18 22 -18 13 -17 14 9 8 30 -7
36 4 12 24 -21 18 -11 24 15 10 26 -14 37 -6 20 15 -7 8 -9 15 -4 15 4 0 -1 7
-12 15 -27 21 -58 20 -50 -2z"/>
<path d="M4820 3670 c8 -5 24 -10 34 -10 26 0 18 6 -19 14 -22 5 -26 4 -15 -4z"/>
<path d="M4895 3660 c-4 -6 3 -10 14 -10 25 0 27 6 6 13 -8 4 -17 2 -20 -3z"/>
<path d="M4590 3645 c7 -8 17 -15 22 -15 6 0 5 7 -2 15 -7 8 -17 15 -22 15 -6
0 -5 -7 2 -15z"/>
<path d="M3360 3610 c-13 -8 -13 -10 2 -10 9 0 20 5 23 10 8 13 -5 13 -25 0z"/>
<path d="M5155 3560 c3 -5 16 -10 27 -10 26 0 16 13 -13 17 -12 2 -18 -1 -14
-7z"/>
<path d="M3693 3523 c-10 -4 -9 -8 1 -19 26 -25 119 -13 102 14 -6 10 -80 14
-103 5z"/>
<path d="M4115 3520 c-3 -5 -19 -10 -35 -10 -26 0 -84 -37 -102 -66 -5 -7 -17
-10 -28 -7 -11 3 -21 0 -21 -6 -1 -6 -2 -14 -3 -18 -3 -14 -29 -58 -37 -63
-20 -13 -39 -470 -20 -470 11 0 21 36 21 75 0 17 7 50 16 74 8 25 12 56 9 72
-4 15 -1 37 5 49 8 15 8 31 1 53 -32 102 -14 142 45 104 24 -16 37 -36 51 -79
17 -55 33 -76 33 -44 0 8 19 32 43 53 24 21 54 54 67 73 14 19 33 44 42 55 17
20 17 23 -8 68 -15 29 -23 57 -20 70 3 12 3 17 0 10 -3 -7 -12 -9 -20 -6 -7 3
-11 9 -8 14 3 5 -2 9 -10 9 -8 0 -18 -4 -21 -10z"/>
<path d="M3032 3505 c-9 -5 -23 -10 -30 -11 -21 -4 -27 -14 -9 -14 10 0 17 -4
17 -10 0 -5 -5 -10 -11 -10 -5 0 -7 -4 -4 -10 8 -14 71 -13 98 1 41 22 49 49
15 49 -19 0 -20 2 -8 10 20 13 -45 9 -68 -5z"/>
<path d="M3450 3487 c0 -7 54 -69 120 -138 77 -78 129 -141 143 -171 22 -49
49 -63 61 -32 12 30 6 152 -9 194 -22 62 -19 65 26 32 38 -28 69 -33 69 -10 0
5 4 7 8 4 4 -2 7 10 7 27 -3 83 -5 89 -20 83 -8 -3 -15 -1 -15 4 0 6 -4 10
-10 10 -5 0 -10 -6 -10 -14 0 -17 -24 -27 -45 -19 -10 3 -15 1 -13 -7 2 -7 -2
-14 -9 -17 -7 -3 -10 4 -7 19 2 13 2 17 -2 11 -3 -7 -13 -13 -21 -13 -9 0 -13
-6 -9 -15 6 -17 -1 -19 -60 -16 -23 2 -45 -2 -49 -8 -14 -24 -56 -11 -95 29
-22 23 -40 45 -40 50 0 6 -4 10 -10 10 -5 0 -10 -6 -10 -13z"/>
<path d="M4877 3489 c5 -5 24 -11 43 -14 30 -6 32 -5 16 6 -24 15 -73 22 -59
8z"/>
<path d="M4790 3466 c0 -3 9 -10 20 -16 11 -6 20 -8 20 -6 0 3 -9 10 -20 16
-11 6 -20 8 -20 6z"/>
<path d="M2900 3439 c-19 -4 -52 -17 -72 -27 -36 -19 -36 -20 -15 -30 21 -10
21 -11 -5 -11 -41 -1 -34 -21 7 -21 43 0 93 29 73 42 -19 12 16 36 45 31 14
-3 29 2 36 11 12 14 10 16 -10 15 -13 -1 -40 -5 -59 -10z"/>
<path d="M4690 3424 c0 -20 56 -73 79 -76 50 -4 131 -2 131 4 0 4 -24 16 -52
27 -29 11 -48 20 -43 21 6 0 -3 9 -20 20 -37 25 -95 27 -95 4z"/>
<path d="M2992 3379 c-13 -5 -29 -15 -37 -23 -12 -11 -8 -15 25 -26 38 -13 40
-12 68 18 28 29 28 31 8 36 -27 7 -36 7 -64 -5z"/>
<path d="M6070 3380 c0 -5 4 -10 9 -10 6 0 13 5 16 10 3 6 -1 10 -9 10 -9 0
-16 -4 -16 -10z"/>
<path d="M3136 3328 c-19 -11 -19 -11 -1 -24 14 -10 15 -14 4 -14 -10 -1 -9
-4 4 -11 10 -6 30 -8 45 -4 25 7 26 8 7 15 -11 5 -14 9 -7 9 7 1 10 6 7 11 -3
6 -1 10 5 10 6 0 8 5 5 10 -8 13 -45 12 -69 -2z"/>
<path d="M4855 3329 c4 -6 -1 -17 -11 -24 -16 -12 -16 -16 -5 -24 22 -14 53
-1 48 21 -4 15 -2 18 10 14 13 -5 14 -4 3 9 -14 17 -55 21 -45 4z"/>
<path d="M6050 3320 c0 -5 7 -7 15 -4 8 4 15 8 15 10 0 2 -7 4 -15 4 -8 0 -15
-4 -15 -10z"/>
<path d="M4597 3303 c-11 -3 -16 -11 -13 -19 3 -8 1 -14 -4 -14 -23 0 -7 -19
25 -30 41 -13 54 -8 52 23 -1 20 -24 48 -37 46 -3 -1 -13 -3 -23 -6z"/>
<path d="M4745 3273 c-19 -15 -18 -15 14 -9 18 3 38 6 43 6 5 0 6 5 3 10 -9
15 -37 12 -60 -7z"/>
<path d="M4903 3223 c9 -2 23 -2 30 0 6 3 -1 5 -18 5 -16 0 -22 -2 -12 -5z"/>
<path d="M2995 3135 c35 -16 62 -19 69 -6 6 9 -42 22 -78 20 -18 0 -16 -3 9
-14z"/>
<path d="M4547 3089 c7 -7 15 -10 18 -7 3 3 -2 9 -12 12 -14 6 -15 5 -6 -5z"/>
<path d="M2045 2976 l-29 -23 36 -5 c47 -5 63 2 64 30 1 30 -32 29 -71 -2z"/>
<path d="M5585 2870 c27 -12 43 -12 25 0 -8 5 -22 9 -30 9 -10 0 -8 -3 5 -9z"/>
<path d="M3846 2798 c-8 -32 -7 -40 4 -33 6 4 7 -6 4 -25 -6 -26 -4 -29 10
-24 11 4 25 -1 38 -15 11 -12 23 -20 26 -17 3 3 -3 15 -13 26 -10 11 -15 23
-12 26 3 4 1 16 -5 28 -10 19 -10 20 6 7 9 -8 15 -19 12 -26 -2 -6 1 -12 7
-12 7 0 20 -4 30 -8 14 -6 17 -2 17 21 0 20 -3 25 -9 15 -6 -10 -12 -4 -21 23
-10 31 -14 35 -31 26 -13 -7 -19 -7 -19 0 0 20 -38 10 -44 -12z"/>
<path d="M5514 2775 c11 -8 22 -12 25 -9 6 6 -19 24 -34 24 -5 -1 -1 -7 9 -15z"/>
<path d="M3657 2753 c-10 -9 -9 -23 2 -23 5 0 11 7 15 15 5 15 -5 20 -17 8z"/>
<path d="M3710 2750 c-8 -5 -12 -12 -9 -15 4 -3 12 1 19 10 14 17 11 19 -10 5z"/>
<path d="M4003 2738 c4 -12 2 -15 -9 -11 -7 3 -14 0 -14 -6 0 -14 27 -14 36 0
3 6 1 16 -6 22 -10 9 -12 8 -7 -5z"/>
<path d="M1660 2635 c-7 -8 -8 -15 -2 -15 5 0 15 7 22 15 7 8 8 15 2 15 -5 0
-15 -7 -22 -15z"/>
<path d="M4995 2500 c2 -14 5 -29 5 -34 0 -4 9 -6 20 -3 11 3 20 2 20 -2 0 -4
7 -8 15 -8 28 0 15 25 -19 37 -19 6 -37 16 -40 23 -4 7 -4 1 -1 -13z"/>
<path d="M1953 2218 c-18 -29 -11 -78 11 -78 12 0 86 71 86 83 0 12 -89 7 -97
-5z"/>
<path d="M2036 2169 c-25 -28 -46 -55 -46 -59 0 -4 11 -5 25 -2 28 5 109 88
100 102 -12 20 -34 9 -79 -41z"/>
<path d="M2137 2180 c-37 -32 -46 -50 -26 -50 17 0 72 57 67 70 -3 9 -16 2
-41 -20z"/>
<path d="M1968 1973 c-51 -56 -61 -100 -35 -156 10 -20 22 -37 28 -37 6 0 8
-4 5 -9 -3 -5 19 -35 49 -67 46 -49 57 -56 65 -43 5 9 19 27 30 40 12 14 8 2
-10 -28 -42 -71 -43 -137 -3 -206 17 -27 29 -37 48 -37 15 0 25 -6 25 -14 0
-20 29 -48 43 -39 6 4 8 0 4 -10 -4 -12 -1 -17 11 -18 23 -2 44 1 62 8 34 13
71 9 81 -9 5 -10 19 -18 29 -18 11 0 20 -5 20 -11 0 -6 6 -9 12 -7 7 3 18 0
25 -6 40 -35 50 -41 72 -43 13 -1 27 -6 30 -10 3 -4 17 -9 31 -10 40 -3 113
-27 139 -45 13 -9 29 -14 34 -11 6 4 7 1 2 -7 -6 -10 -4 -12 9 -7 14 5 17 3
12 -8 -4 -11 2 -15 22 -16 57 -3 78 -7 120 -22 24 -9 46 -16 50 -16 21 3 42
-3 54 -14 31 -31 76 -48 133 -51 17 0 33 -5 37 -10 4 -6 17 -5 33 2 20 9 31
10 41 1 10 -8 17 -7 29 4 8 9 15 21 15 27 0 7 7 10 15 6 8 -3 15 -2 15 3 0 5
14 11 30 15 38 7 57 49 39 83 -7 12 -16 20 -21 17 -4 -3 -9 3 -10 13 0 10 -2
25 -2 33 -1 8 -7 14 -14 13 -7 -2 -12 3 -12 11 0 21 -25 26 -49 10 -20 -14
-21 -14 -21 13 0 21 -3 25 -10 13 -7 -12 -12 -12 -22 -2 -9 9 -9 12 2 12 7 0
10 3 7 6 -4 4 -14 1 -23 -6 -13 -12 -17 -11 -24 0 -5 8 -6 18 -4 22 3 4 -2 5
-11 2 -13 -5 -14 -2 -6 17 5 13 9 26 9 29 0 3 4 13 8 24 9 22 -15 40 -33 24
-10 -8 -13 -6 -13 7 0 13 -6 16 -25 13 -20 -4 -26 -1 -31 18 -6 22 -8 23 -34
9 l-28 -14 -4 51 c-6 57 -28 82 -65 75 -24 -5 -63 25 -63 48 0 9 -6 12 -15 9
-8 -4 -17 1 -21 9 -4 11 -13 13 -40 7 -19 -4 -34 -4 -34 1 0 11 23 63 31 69
10 8 18 51 12 65 -3 10 -11 11 -29 5 -14 -6 -36 -12 -49 -14 -14 -3 -50 -17
-81 -31 -30 -14 -79 -28 -107 -30 -47 -3 -114 -22 -127 -35 -9 -10 -61 -30
-75 -30 -8 0 -15 5 -15 11 0 6 9 8 20 4 11 -4 20 -2 20 4 0 6 -4 11 -10 11 -5
0 -7 7 -4 15 4 8 2 15 -4 15 -5 0 -15 -7 -22 -15 -15 -18 -27 -19 -33 -2 -2 6
-2 2 0 -11 2 -13 -2 -25 -11 -28 -8 -3 -17 -12 -20 -19 -3 -10 0 -12 11 -8 12
5 14 3 8 -8 -8 -12 -6 -12 9 0 21 18 60 23 47 7 -5 -6 -7 -19 -6 -28 2 -10 -1
-18 -6 -18 -4 0 -7 -18 -4 -39 4 -42 -17 -76 -28 -47 -3 8 1 17 9 20 8 3 14
11 14 17 0 8 -4 8 -15 -1 -8 -7 -29 -14 -45 -15 -30 -3 -31 -2 -13 18 10 11
12 17 4 12 -11 -6 -13 -3 -8 14 3 14 0 24 -9 28 -12 4 -12 8 -2 21 11 12 11
16 0 20 -9 3 -6 10 9 23 12 10 26 19 31 19 4 0 8 5 8 10 0 6 -9 5 -22 -3 -13
-8 -29 -13 -35 -12 -7 2 -17 3 -23 4 -5 0 -9 12 -8 25 1 14 5 23 8 22 3 -2 15
10 28 25 14 17 18 29 11 29 -6 0 -18 -8 -26 -17 -12 -16 -13 -14 -7 17 15 82
-4 94 -56 33 l-32 -38 26 46 c14 25 26 60 26 77 0 29 -3 32 -30 32 -16 0 -30
5 -30 11 0 6 -16 1 -35 -11 l-36 -22 7 26 c5 23 3 26 -20 26 -19 0 -26 5 -26
20 0 30 -41 26 -72 -7z m182 -223 c-6 -11 -13 -20 -16 -20 -2 0 0 9 6 20 6 11
13 20 16 20 2 0 0 -9 -6 -20z"/>
<path d="M5421 1898 c12 -23 37 -82 56 -132 35 -92 52 -122 54 -96 5 80 -3
157 -20 203 -5 14 -7 28 -3 32 3 3 -2 3 -12 -1 -10 -4 -21 -2 -25 5 -4 6 -22
15 -39 20 l-32 10 21 -41z"/>
<path d="M1345 1849 c-4 -6 -5 -12 -2 -15 2 -3 7 2 10 11 7 17 1 20 -8 4z"/>
<path d="M5430 1787 c0 -12 -5 -16 -12 -11 -7 4 -10 4 -6 0 10 -11 -12 -66
-26 -66 -7 0 -25 -13 -40 -29 -16 -16 -41 -35 -57 -41 -16 -7 -29 -18 -29 -25
0 -21 -33 -23 -85 -6 -63 20 -93 37 -127 69 -28 25 -28 25 -28 4 0 -15 -6 -22
-19 -22 -10 0 -29 -10 -43 -23 -24 -23 -26 -23 -49 -7 -52 37 -92 33 -95 -10
-1 -8 -2 -25 -3 -38 0 -14 -5 -20 -12 -17 -6 4 -16 -1 -23 -10 -11 -15 -15
-16 -34 -4 -27 17 -37 7 -34 -36 2 -27 -1 -35 -14 -35 -10 0 -14 -6 -11 -14 3
-7 -7 -23 -24 -35 -16 -12 -27 -26 -24 -30 6 -11 -20 -33 -28 -24 -4 3 -14 0
-23 -8 -9 -7 -26 -18 -38 -24 -15 -8 -20 -19 -19 -41 1 -16 -1 -24 -5 -18 -4
6 -17 14 -30 18 -13 4 -19 12 -16 18 5 8 1 9 -10 5 -10 -4 -20 -7 -22 -7 -2 0
-4 -5 -4 -11 0 -5 14 -15 30 -20 17 -6 30 -15 30 -20 0 -5 4 -9 10 -9 5 0 36
-26 69 -58 39 -38 75 -63 103 -72 61 -19 88 -22 88 -10 0 5 6 9 13 7 6 -1 11
4 9 12 -2 10 5 12 23 9 14 -3 28 -2 30 3 3 4 25 2 48 -5 35 -10 45 -10 55 0 7
8 11 16 10 18 -2 2 10 14 25 26 15 12 26 25 23 27 -3 3 6 17 20 31 13 15 24
30 24 35 0 4 5 5 10 2 9 -6 14 6 11 30 -1 16 40 12 67 -5 12 -8 22 -20 22 -27
0 -6 15 -21 33 -32 38 -23 83 -17 101 14 6 10 19 28 28 38 10 11 16 23 13 26
-2 4 14 26 35 50 21 23 46 58 55 76 8 19 20 37 25 40 6 3 10 16 10 29 0 13 9
34 21 47 17 20 20 33 16 71 -6 47 -66 178 -67 145z m-286 -323 c18 -18 21 -34
5 -34 -5 0 -8 4 -5 9 3 5 -1 11 -9 15 -8 3 -15 10 -15 16 0 14 6 13 24 -6z"/>
<path d="M1604 1638 c-17 -19 -17 -21 -1 -15 9 4 17 2 17 -3 0 -6 -6 -10 -14
-10 -9 0 -12 -7 -9 -20 6 -23 16 -25 44 -10 22 12 25 36 7 43 -10 4 -10 8 0
15 11 7 10 10 -3 16 -22 8 -19 9 -41 -16z"/>
<path d="M2295 1610 c-3 -5 -1 -10 4 -10 6 0 11 5 11 10 0 6 -2 10 -4 10 -3 0
-8 -4 -11 -10z"/>
<path d="M1656 1362 c-2 -4 -7 -24 -11 -45 -5 -26 -4 -37 5 -37 8 0 10 -8 7
-21 -14 -51 36 -178 74 -191 6 -2 13 -19 15 -38 4 -41 13 -75 88 -325 7 -24
32 -72 48 -94 10 -13 18 -30 18 -37 0 -13 38 -99 63 -140 20 -33 98 -116 148
-157 26 -21 57 -53 70 -72 22 -32 60 -54 118 -71 30 -8 60 -38 88 -89 l22 -40
342 -3 c306 -2 344 -1 360 14 16 14 53 21 144 27 11 0 65 -3 120 -7 55 -4 142
-9 192 -10 57 -1 97 -6 105 -14 17 -17 78 -16 78 2 0 8 11 28 24 44 21 24 31
28 58 24 18 -3 45 -13 60 -23 14 -11 30 -19 35 -19 4 0 14 -9 21 -20 17 -28
115 -29 139 -1 9 11 21 17 28 15 6 -3 18 2 25 11 16 19 34 19 54 -1 21 -20 35
-11 29 20 -4 20 1 28 28 43 34 18 89 25 89 12 0 -4 16 -13 35 -19 19 -6 35
-16 35 -21 0 -5 3 -8 8 -7 4 1 20 -4 36 -11 16 -6 32 -8 35 -3 3 4 28 16 54
26 58 22 93 17 191 -26 69 -30 84 -31 171 -13 17 3 72 8 124 10 77 4 101 9
137 30 23 14 52 25 63 25 15 0 23 11 33 44 21 72 52 102 127 126 70 21 114 57
168 136 48 72 123 213 123 234 0 6 7 25 16 43 9 17 19 60 21 95 2 36 6 68 8
73 3 4 -4 14 -16 23 l-22 15 29 18 c17 10 29 26 28 38 0 11 4 31 9 45 15 42
18 68 7 75 -5 3 -10 11 -10 17 0 7 6 6 15 -2 8 -7 15 -8 15 -4 0 5 -10 15 -22
23 -19 12 -23 11 -33 -3 -7 -8 -15 -13 -18 -9 -4 3 -7 -1 -7 -10 0 -10 -4 -17
-8 -17 -8 0 -7 -64 2 -87 3 -7 0 -13 -6 -13 -7 0 -3 -7 8 -15 16 -13 17 -16 4
-25 -8 -5 -11 -10 -6 -10 5 0 3 -6 -4 -14 -6 -8 -17 -13 -24 -10 -15 6 -118
-33 -127 -48 -4 -6 -18 -12 -31 -14 -12 -1 -26 -3 -30 -3 -14 -2 -8 -31 6 -37
28 -11 24 -29 -6 -31 -16 0 -35 -8 -41 -18 -7 -9 -17 -15 -22 -13 -11 3 -108
-52 -113 -64 -2 -4 -10 -8 -17 -8 -8 0 -16 -9 -20 -19 -4 -12 -12 -18 -21 -14
-7 3 -14 1 -14 -5 0 -19 -128 0 -141 21 -4 5 -10 -4 -14 -21 -4 -21 -11 -29
-21 -25 -17 6 -46 -15 -38 -29 4 -6 -2 -7 -17 -3 -24 7 -61 33 -113 79 -35 31
-50 33 -43 6 3 -13 0 -20 -9 -20 -8 0 -14 -10 -14 -24 0 -19 -7 -25 -34 -30
-32 -6 -35 -9 -31 -36 4 -30 -8 -41 -19 -17 -5 9 -7 9 -12 0 -3 -7 -12 -9 -20
-6 -9 3 -27 -6 -43 -22 -35 -32 -97 -50 -105 -29 -3 8 -11 14 -18 14 -9 0 -9
-3 0 -12 7 -7 12 -19 12 -27 0 -11 -4 -10 -20 4 -11 10 -20 13 -20 8 0 -15
-45 -22 -64 -11 -9 5 -35 27 -57 48 -34 32 -45 37 -64 30 -13 -5 -26 -6 -29
-3 -12 12 -6 -11 7 -26 42 -50 37 -103 -7 -79 -15 8 -21 8 -24 -1 -6 -19 -27
-12 -74 25 -52 40 -115 74 -122 66 -3 -3 -3 -16 0 -28 4 -16 2 -24 -7 -25 -8
0 -23 -2 -33 -4 -11 -2 -24 2 -30 9 -6 6 -32 29 -58 49 l-46 37 -12 -33 c-16
-40 -13 -75 10 -149 21 -69 9 -77 -36 -22 -16 20 -34 41 -40 48 -6 6 -16 25
-22 41 -6 17 -11 24 -11 18 -2 -23 -19 -14 -25 13 -11 43 -37 60 -83 55 -24
-2 -26 -66 -4 -112 22 -44 30 -109 11 -79 -5 8 -10 11 -10 6 0 -5 -10 0 -23
12 -17 16 -26 19 -34 11 -13 -13 -26 -4 -71 44 -15 15 -34 27 -44 27 -9 0 -20
5 -24 11 -4 7 -15 1 -31 -17 -30 -35 -61 -38 -75 -8 -6 13 -14 21 -18 19 -4
-3 -13 2 -20 10 -20 24 -44 18 -63 -15 -20 -33 -35 -38 -43 -15 -4 8 -10 12
-15 9 -5 -3 -9 2 -9 10 0 9 -6 15 -12 14 -8 -2 -13 6 -12 19 0 17 -4 20 -23
17 -14 -3 -23 1 -23 8 0 9 -3 9 -12 0 -15 -15 -28 -15 -28 -1 0 15 -40 50 -50
44 -4 -3 -11 2 -14 11 -4 11 -13 14 -28 11 -13 -4 -29 0 -38 8 -18 17 -31 19
-39 8 -9 -12 -51 -34 -81 -43 -35 -10 -64 11 -55 40 9 28 -12 52 -38 44 -26
-8 -187 -12 -187 -5 0 3 -14 7 -32 8 -17 1 -34 6 -37 10 -12 16 -60 35 -71 28
-7 -4 -17 1 -25 12 -10 15 -22 19 -45 15 -25 -4 -32 0 -36 16 -4 14 -12 18
-25 15 -11 -3 -19 0 -19 6 0 7 -5 9 -12 5 -7 -4 -5 2 5 14 19 21 19 21 -20 20
-22 0 -49 5 -61 11 -11 6 -32 11 -46 11 -19 0 -26 5 -26 20 0 11 -9 25 -20 32
-11 7 -20 18 -20 25 0 7 -6 13 -13 13 -7 0 -29 14 -47 30 -18 17 -37 30 -42
30 -4 0 -8 11 -8 24 0 19 -7 25 -35 30 -20 4 -33 11 -30 16 3 5 1 11 -5 15 -6
4 -8 11 -4 16 3 6 0 10 -7 8 -58 -7 -91 9 -91 44 0 15 -5 25 -11 24 -17 -3
-15 25 4 53 19 29 9 46 -32 52 -22 3 -21 5 15 26 22 13 35 27 30 30 -6 4 -16
23 -24 42 -14 38 -38 63 -51 54 -5 -3 -9 0 -9 5 0 12 -56 15 -64 3z"/>
<path d="M1088 1323 c-10 -3 -18 -9 -18 -14 0 -5 -3 -8 -7 -8 -30 5 -51 -6
-69 -34 -29 -43 -41 -82 -23 -72 8 5 5 -1 -5 -13 -14 -16 -20 -40 -21 -92 -2
-38 1 -67 6 -64 5 3 9 1 9 -5 0 -5 -5 -13 -10 -16 -6 -4 -8 -11 -4 -16 3 -5 9
-7 13 -4 5 2 7 -9 5 -25 -2 -18 1 -30 8 -30 9 0 9 -3 0 -12 -7 -7 -12 -15 -12
-19 0 -9 65 51 66 62 1 5 2 13 3 18 0 5 10 12 20 16 27 8 45 63 28 83 -9 13
-9 14 1 8 8 -5 12 1 12 18 0 14 4 26 8 26 5 0 9 6 9 13 2 31 12 87 18 97 11
18 14 50 4 50 -5 0 -9 6 -9 14 0 18 -10 24 -32 19z"/>
<path d="M4984 1084 c6 -13 21 -27 32 -33 23 -10 61 -9 57 2 -2 4 -3 11 -3 17
0 13 -40 33 -71 35 -23 1 -25 0 -15 -21z"/>
<path d="M2995 745 c-28 -27 -32 -45 -11 -45 17 0 36 22 41 49 5 27 0 26 -30
-4z"/>
<path d="M1195 679 c-27 -28 -28 -32 -16 -62 7 -18 13 -38 14 -44 0 -7 4 -13
9 -13 5 0 6 -5 2 -11 -3 -6 0 -15 7 -20 7 -4 14 -18 14 -30 0 -33 51 -45 66
-17 6 11 14 16 18 11 3 -5 15 0 25 11 16 16 17 18 3 13 -9 -3 -17 -2 -17 3 0
6 5 10 12 10 6 0 4 6 -7 13 -10 8 -15 19 -11 25 3 6 2 13 -4 17 -6 4 -8 10 -5
15 3 5 -1 12 -9 17 -8 4 -14 17 -14 28 1 38 -2 45 -20 45 -10 0 -22 4 -27 9
-6 6 -21 -2 -40 -20z"/>
<path d="M1428 493 c7 -3 16 -2 19 1 4 3 -2 6 -13 5 -11 0 -14 -3 -6 -6z"/>
<path d="M903 439 c-42 -19 -58 -49 -27 -49 9 0 12 5 8 12 -4 6 -3 8 4 4 6 -3
13 -2 17 3 3 6 12 8 19 5 9 -3 15 4 18 20 3 14 5 26 4 25 0 0 -20 -9 -43 -20z"/>
<path d="M896 385 c-10 -8 -22 -12 -26 -10 -4 3 -20 -14 -36 -36 -15 -22 -36
-45 -46 -50 -10 -5 -18 -16 -18 -24 0 -8 -5 -15 -12 -15 -6 0 -9 -3 -6 -6 3
-3 -4 -15 -16 -28 -44 -46 -66 -81 -71 -111 0 -5 -5 -18 -9 -28 -5 -9 -6 -26
-3 -37 3 -11 0 -18 -5 -17 -6 1 -13 -4 -15 -11 -4 -11 24 -13 155 -10 88 1
163 6 167 10 11 10 15 79 6 97 -15 29 -29 101 -18 94 5 -3 7 0 5 8 -3 8 -11
13 -17 11 -16 -3 -9 60 9 76 8 8 10 11 4 8 -6 -3 -19 0 -29 7 -16 13 -16 14 0
30 9 9 12 17 7 17 -6 0 -8 9 -5 20 6 24 4 24 -21 5z m-16 -35 c0 -5 -2 -10 -4
-10 -3 0 -8 5 -11 10 -3 6 -1 10 4 10 6 0 11 -4 11 -10z"/>
<path d="M1541 271 c-13 -10 -20 -21 -15 -24 12 -7 47 19 43 32 -2 6 -14 2
-28 -8z"/>
<path d="M1554 239 l-19 -22 30 7 c36 9 39 12 30 25 -9 16 -20 13 -41 -10z"/>
</g>
</svg>
